<?xml version="1.0" encoding="UTF-8" standalone="no"?>
<!-- Created with Inkscape (http://www.inkscape.org/) -->

<svg
   xmlns:dc="http://purl.org/dc/elements/1.1/"
   xmlns:cc="http://creativecommons.org/ns#"
   xmlns:rdf="http://www.w3.org/1999/02/22-rdf-syntax-ns#"
   xmlns:svg="http://www.w3.org/2000/svg"
   xmlns="http://www.w3.org/2000/svg"
   xmlns:sodipodi="http://sodipodi.sourceforge.net/DTD/sodipodi-0.dtd"
   xmlns:inkscape="http://www.inkscape.org/namespaces/inkscape"
   width="32px"
   height="32px"
   id="svg3356"
   version="1.1"
   inkscape:version="0.48.5 r10040"
   sodipodi:docname="Neues Dokument 3">
  <defs
     id="defs3358" />
  <sodipodi:namedview
     id="base"
     pagecolor="#ffffff"
     bordercolor="#666666"
     borderopacity="1.0"
     inkscape:pageopacity="0.0"
     inkscape:pageshadow="2"
     inkscape:zoom="22.395604"
     inkscape:cx="15.601571"
     inkscape:cy="17.200147"
     inkscape:current-layer="layer1"
     showgrid="true"
     inkscape:grid-bbox="true"
     inkscape:document-units="px"
     inkscape:window-width="1920"
     inkscape:window-height="1006"
     inkscape:window-x="0"
     inkscape:window-y="24"
     inkscape:window-maximized="1" />
  <metadata
     id="metadata3361">
    <rdf:RDF>
      <cc:Work
         rdf:about="">
        <dc:format>image/svg+xml</dc:format>
        <dc:type
           rdf:resource="http://purl.org/dc/dcmitype/StillImage" />
        <dc:title></dc:title>
      </cc:Work>
    </rdf:RDF>
  </metadata>
  <g
     id="layer1"
     inkscape:label="Layer 1"
     inkscape:groupmode="layer">
    <path
       inkscape:connector-curvature="0"
       d="M 15.998711,2.6911117 C 8.267964,2.6911117 2,8.9590761 2,16.691542 c 0,6.185456 4.0110501,11.432394 9.574266,13.284507 0.700451,0.128058 0.955707,-0.304245 0.955707,-0.675527 0,-0.331747 -0.01203,-1.212683 -0.01891,-2.380674 C 8.6169005,27.765546 7.7952669,25.04281 7.7952669,25.04281 7.1584149,23.426186 6.240523,22.995602 6.240523,22.995602 4.9693975,22.126699 6.336781,22.143888 6.336781,22.143888 c 1.4051996,0.0997 2.1443261,1.443015 2.1443261,1.443015 1.2487799,2.139169 3.2770799,1.521225 4.0746499,1.163694 0.127198,-0.905 0.488167,-1.522084 0.88867,-1.87188 -3.108628,-0.353234 -6.3771141,-1.554744 -6.3771141,-6.919426 0,-1.528101 0.5457503,-2.777741 1.4412965,-3.756653 -0.1443874,-0.354094 -0.6248196,-1.777342 0.1366525,-3.7050869 0,0 1.1757267,-0.376438 3.8503331,1.435281 1.116425,-0.310261 2.314497,-0.465822 3.504835,-0.470978 1.188618,0.0052 2.386691,0.160717 3.504834,0.470978 2.672888,-1.811719 3.846036,-1.435281 3.846036,-1.435281 0.76405,1.9277449 0.283618,3.3509929 0.139231,3.7050869 0.897265,0.978912 1.439577,2.228552 1.439577,3.756653 0,5.378433 -3.273642,6.561895 -6.392584,6.908253 0.502778,0.432303 0.950551,1.286596 0.950551,2.592959 0,1.871021 -0.01719,3.381073 -0.01719,3.840019 0,0.37472 0.251819,0.810461 0.962583,0.673809 C 25.992388,28.118779 30,22.875279 30,16.691542 30,8.9590761 23.731177,2.6911117 15.998711,2.6911117"
       style="fill:#1b1817;fill-opacity:1;fill-rule:evenodd;stroke:none"
       id="path24" />
  </g>
</svg>
